<svg id="Layer_1" data-name="Layer 1" xmlns="http://www.w3.org/2000/svg" viewBox="0 0 512 512"><title>social-media-icon-github</title><path d="M496.75,1.27H251.06C109.47,1.27,0,112.21,0,253.8V499.51c0,5.9-.57,11.23,5.34,11.23H251.06C392.65,510.73,512,395.41,512,253.8V8.09C512,2.19,502.65,1.27,496.75,1.27Z" fill="#595959"/><path id="path9-5" d="M138.64,243.77c-.5,0,5.49,12.89,5.65,12.89,13.07,23.71,38.26,38.46,80.76,42.53-6.07,4.6-13.35,13.35-14.36,23.44-7.63,4.92-23,6.55-34.88,2.8-16.71-5.28-23.11-38.33-48.13-33.62-5.41,1-4.34,4.59.34,7.62,7.63,4.93,14.8,11.1,20.33,24.24,4.26,10.08,13.2,28.1,41.47,28.1a124.05,124.05,0,0,0,19.07-1.36s.21,25.75.21,35.76c0,11.55-15.59,14.8-15.59,20.35,0,2.19,5.17,2.4,9.31,2.4,8.2,0,25.24-6.84,25.24-18.83,0-9.53.16-41.58.16-47.19,0-12.25,6.57-16.14,6.57-16.14s.81,65.43-1.57,74.21c-2.8,10.31-7.85,8.85-7.85,13.45,0,6.85,20.52,1.67,27.33-13.35,5.25-11.69,3-75.88,3-75.88l5.61-.12s.32,29.38.12,42.82c-.2,13.91-1.14,31.5,7.12,39.79,5.43,5.45,23,15,23,6.28,0-5.08-9.64-9.25-9.64-23v-63.3c7.7,0,6.55,20.8,6.55,20.8l.56,38.68s-1.7,14.09,15.25,20c6,2.1,18.76,2.65,19.37-.85s-15.41-8.75-15.55-19.66c-.1-6.64.3-10.53.3-39.45s-3.89-39.61-17.43-48.13c41.78-4.29,67.65-14.62,80.25-42.29,1,0,5.14-12.92,4.6-12.92,2.82-10.45,4.37-22.8,4.65-37.43-.07-39.69-19.07-53.72-22.72-60.31,5.38-30.05-.9-43.71-3.82-48.41-10.77-3.83-37.46,9.85-52,19.48-23.76-6.94-74-6.28-92.86,1.79-34.77-24.88-53.17-21.07-53.17-21.07S144,119.17,152.7,150.33c-11.44,14.58-20,24.88-20,52.21,0,15.42,1.82,29.2,5.91,41.23Z" fill="#fff"/></svg>